{
    "asset" : {
        "generator" : "Khronos glTF Blender I/O v1.7.33",
        "version" : "2.0"
    },
    "scene" : 0,
    "scenes" : [
        {
            "name" : "Scene",
            "nodes" : [
                0
            ]
        }
    ],
    "nodes" : [
        {
            "mesh" : 0,
            "name" : "Busto 15_3_Gu",
            "translation" : [
                0.04905887320637703,
                1.508933424949646,
                -0.011870277114212513
            ]
        }
    ],
    "materials" : [
        {
            "doubleSided" : true,
            "name" : "Material.001",
            "pbrMetallicRoughness" : {
                "baseColorTexture" : {
                    "index" : 0
                },
                "metallicFactor" : 0,
                "roughnessFactor" : 0.5
            }
        }
    ],
    "meshes" : [
        {
            "name" : "Busto 15_3.001",
            "primitives" : [
                {
                    "attributes" : {
                        "POSITION" : 0,
                        "NORMAL" : 1,
                        "TEXCOORD_0" : 2
                    },
                    "indices" : 3,
                    "material" : 0
                }
            ]
        }
    ],
    "textures" : [
        {
            "sampler" : 0,
            "source" : 0
        }
    ],
    "images" : [
        {
            "bufferView" : 4,
            "mimeType" : "image/jpeg",
            "name" : "Busto 15_LO"
        }
    ],
    "accessors" : [
        {
            "bufferView" : 0,
            "componentType" : 5126,
            "count" : 19445,
            "max" : [
                1.218090534210205,
                2.1125776767730713,
                1.465807318687439
            ],
            "min" : [
                -1.5896598100662231,
                -2.3471884727478027,
                -1.8813782930374146
            ],
            "type" : "VEC3"
        },
        {
            "bufferView" : 1,
            "componentType" : 5126,
            "count" : 19445,
            "type" : "VEC3"
        },
        {
            "bufferView" : 2,
            "componentType" : 5126,
            "count" : 19445,
            "type" : "VEC2"
        },
        {
            "bufferView" : 3,
            "componentType" : 5123,
            "count" : 19461,
            "type" : "SCALAR"
        }
    ],
    "bufferViews" : [
        {
            "buffer" : 0,
            "byteLength" : 233340,
            "byteOffset" : 0
        },
        {
            "buffer" : 0,
            "byteLength" : 233340,
            "byteOffset" : 233340
        },
        {
            "buffer" : 0,
            "byteLength" : 155560,
            "byteOffset" : 466680
        },
        {
            "buffer" : 0,
            "byteLength" : 38922,
            "byteOffset" : 622240
        },
        {
            "buffer" : 0,
            "byteLength" : 838968,
            "byteOffset" : 661164
        }
    ],
    "samplers" : [
        {
            "magFilter" : 9729,
            "minFilter" : 9987
        }
    ],
    "buffers" : [
        {
            "byteLength" : 1500132,
            "uri" : "data:application/octet-stream;base64,"
        }
    ]
}
