{
    "asset" : {
        "generator" : "Khronos glTF Blender I/O v1.7.33",
        "version" : "2.0"
    },
    "scene" : 0,
    "scenes" : [
        {
            "name" : "Scene",
            "nodes" : [
                0,
                1
            ]
        }
    ],
    "nodes" : [
        {
            "mesh" : 0,
            "name" : "Busto 03_4.001",
            "rotation" : [
                -0.8351594805717468,
                -0.1701631397008896,
                -0.016042355448007584,
                0.5227770209312439
            ],
            "scale" : [
                7.477258205413818,
                7.477258682250977,
                7.477258205413818
            ],
            "translation" : [
                -0.6628299951553345,
                0.7034530639648438,
                0.7261736392974854
            ]
        },
        {
            "mesh" : 1,
            "name" : "Busto 04_4.001",
            "rotation" : [
                -0.42824724316596985,
                -0.5942947268486023,
                0.44898512959480286,
                -0.5116937160491943
            ],
            "scale" : [
                -6.113002300262451,
                -6.113002300262451,
                -6.113002300262451
            ],
            "translation" : [
                0.7717335224151611,
                2.428208827972412,
                -1.6965203285217285
            ]
        }
    ],
    "materials" : [
        {
            "doubleSided" : true,
            "name" : "Busto_03_4.001",
            "pbrMetallicRoughness" : {
                "baseColorTexture" : {
                    "index" : 0
                },
                "metallicFactor" : 0
            }
        },
        {
            "doubleSided" : true,
            "name" : "Busto_04_4.001",
            "pbrMetallicRoughness" : {
                "baseColorTexture" : {
                    "index" : 1
                },
                "metallicFactor" : 0
            }
        }
    ],
    "meshes" : [
        {
            "name" : "Busto 03_4.001",
            "primitives" : [
                {
                    "attributes" : {
                        "POSITION" : 0,
                        "NORMAL" : 1,
                        "TEXCOORD_0" : 2
                    },
                    "indices" : 3,
                    "material" : 0
                }
            ]
        },
        {
            "name" : "Busto 04_4.001",
            "primitives" : [
                {
                    "attributes" : {
                        "POSITION" : 4,
                        "NORMAL" : 5,
                        "TEXCOORD_0" : 6
                    },
                    "indices" : 7,
                    "material" : 1
                }
            ]
        }
    ],
    "textures" : [
        {
            "sampler" : 0,
            "source" : 0
        },
        {
            "sampler" : 0,
            "source" : 1
        }
    ],
    "images" : [
        {
            "bufferView" : 4,
            "mimeType" : "image/jpeg",
            "name" : "Busto 03_4"
        },
        {
            "bufferView" : 9,
            "mimeType" : "image/jpeg",
            "name" : "Busto 04_4"
        }
    ],
    "accessors" : [
        {
            "bufferView" : 0,
            "componentType" : 5126,
            "count" : 14610,
            "max" : [
                0.39222252368927,
                0.26178088784217834,
                0.20722118020057678
            ],
            "min" : [
                -0.2994384765625,
                -0.2324364334344864,
                -0.22110924124717712
            ],
            "type" : "VEC3"
        },
        {
            "bufferView" : 1,
            "componentType" : 5126,
            "count" : 14610,
            "type" : "VEC3"
        },
        {
            "bufferView" : 2,
            "componentType" : 5126,
            "count" : 14610,
            "type" : "VEC2"
        },
        {
            "bufferView" : 3,
            "componentType" : 5123,
            "count" : 14610,
            "type" : "SCALAR"
        },
        {
            "bufferView" : 5,
            "componentType" : 5126,
            "count" : 14556,
            "max" : [
                0.23486344516277313,
                0.5962908267974854,
                0.2798736095428467
            ],
            "min" : [
                -0.17149341106414795,
                -0.44197139143943787,
                -0.2695178985595703
            ],
            "type" : "VEC3"
        },
        {
            "bufferView" : 6,
            "componentType" : 5126,
            "count" : 14556,
            "type" : "VEC3"
        },
        {
            "bufferView" : 7,
            "componentType" : 5126,
            "count" : 14556,
            "type" : "VEC2"
        },
        {
            "bufferView" : 8,
            "componentType" : 5123,
            "count" : 14556,
            "type" : "SCALAR"
        }
    ],
    "bufferViews" : [
        {
            "buffer" : 0,
            "byteLength" : 175320,
            "byteOffset" : 0
        },
        {
            "buffer" : 0,
            "byteLength" : 175320,
            "byteOffset" : 175320
        },
        {
            "buffer" : 0,
            "byteLength" : 116880,
            "byteOffset" : 350640
        },
        {
            "buffer" : 0,
            "byteLength" : 29220,
            "byteOffset" : 467520
        },
        {
            "buffer" : 0,
            "byteLength" : 644197,
            "byteOffset" : 496740
        },
        {
            "buffer" : 0,
            "byteLength" : 174672,
            "byteOffset" : 1140940
        },
        {
            "buffer" : 0,
            "byteLength" : 174672,
            "byteOffset" : 1315612
        },
        {
            "buffer" : 0,
            "byteLength" : 116448,
            "byteOffset" : 1490284
        },
        {
            "buffer" : 0,
            "byteLength" : 29112,
            "byteOffset" : 1606732
        },
        {
            "buffer" : 0,
            "byteLength" : 566534,
            "byteOffset" : 1635844
        }
    ],
    "samplers" : [
        {
            "magFilter" : 9729,
            "minFilter" : 9987
        }
    ],
    "buffers" : [
        {
            "byteLength" : 2202380,
            "uri" : "data:application/octet-stream;base64,"
        }
    ]
}
