{
    "asset" : {
        "generator" : "Khronos glTF Blender I/O v1.7.33",
        "version" : "2.0"
    },
    "scene" : 0,
    "scenes" : [
        {
            "name" : "Scene",
            "nodes" : [
                0
            ]
        }
    ],
    "nodes" : [
        {
            "mesh" : 0,
            "name" : "Scan_61_PP.001",
            "rotation" : [
                -0.006518115289509296,
                -0.9520004987716675,
                0.017562618479132652,
                0.305522620677948
            ],
            "scale" : [
                3.7812790870666504,
                3.7812790870666504,
                3.7812790870666504
            ],
            "translation" : [
                -0.06314782798290253,
                2.051185369491577,
                -0.4025166928768158
            ]
        }
    ],
    "materials" : [
        {
            "doubleSided" : true,
            "name" : "Scan_61_PP.001",
            "pbrMetallicRoughness" : {
                "baseColorTexture" : {
                    "index" : 0
                },
                "metallicFactor" : 0
            }
        }
    ],
    "meshes" : [
        {
            "name" : "Scan_61_PP.001",
            "primitives" : [
                {
                    "attributes" : {
                        "POSITION" : 0,
                        "NORMAL" : 1,
                        "TEXCOORD_0" : 2
                    },
                    "indices" : 3,
                    "material" : 0
                }
            ]
        }
    ],
    "textures" : [
        {
            "sampler" : 0,
            "source" : 0
        }
    ],
    "images" : [
        {
            "bufferView" : 4,
            "mimeType" : "image/jpeg",
            "name" : "Scan_61_PP"
        }
    ],
    "accessors" : [
        {
            "bufferView" : 0,
            "componentType" : 5126,
            "count" : 4932,
            "max" : [
                0.3525885343551636,
                0.5199141502380371,
                0.5323810577392578
            ],
            "min" : [
                -0.4727463722229004,
                -0.49154072999954224,
                -0.49665185809135437
            ],
            "type" : "VEC3"
        },
        {
            "bufferView" : 1,
            "componentType" : 5126,
            "count" : 4932,
            "type" : "VEC3"
        },
        {
            "bufferView" : 2,
            "componentType" : 5126,
            "count" : 4932,
            "type" : "VEC2"
        },
        {
            "bufferView" : 3,
            "componentType" : 5123,
            "count" : 21453,
            "type" : "SCALAR"
        }
    ],
    "bufferViews" : [
        {
            "buffer" : 0,
            "byteLength" : 59184,
            "byteOffset" : 0
        },
        {
            "buffer" : 0,
            "byteLength" : 59184,
            "byteOffset" : 59184
        },
        {
            "buffer" : 0,
            "byteLength" : 39456,
            "byteOffset" : 118368
        },
        {
            "buffer" : 0,
            "byteLength" : 42906,
            "byteOffset" : 157824
        },
        {
            "buffer" : 0,
            "byteLength" : 713365,
            "byteOffset" : 200732
        }
    ],
    "samplers" : [
        {
            "magFilter" : 9729,
            "minFilter" : 9987
        }
    ],
    "buffers" : [
        {
            "byteLength" : 914100,
            "uri" : "data:application/octet-stream;base64,"
        }
    ]
}
