{
    "asset" : {
        "generator" : "Khronos glTF Blender I/O v1.7.33",
        "version" : "2.0"
    },
    "scene" : 0,
    "scenes" : [
        {
            "name" : "Scene",
            "nodes" : [
                0
            ]
        }
    ],
    "nodes" : [
        {
            "mesh" : 0,
            "name" : "Busto 17",
            "rotation" : [
                -0.7927690148353577,
                0.05863666906952858,
                0.028114184737205505,
                0.6060434579849243
            ],
            "scale" : [
                1.7795859575271606,
                1.7795859575271606,
                1.779585599899292
            ],
            "translation" : [
                -0.3992435932159424,
                1.5449869632720947,
                -0.2631235122680664
            ]
        }
    ],
    "materials" : [
        {
            "doubleSided" : true,
            "name" : "Busto_17",
            "pbrMetallicRoughness" : {
                "baseColorTexture" : {
                    "index" : 0
                },
                "metallicFactor" : 0
            }
        }
    ],
    "meshes" : [
        {
            "name" : "Busto 17",
            "primitives" : [
                {
                    "attributes" : {
                        "POSITION" : 0,
                        "NORMAL" : 1,
                        "TEXCOORD_0" : 2
                    },
                    "indices" : 3,
                    "material" : 0
                }
            ]
        }
    ],
    "textures" : [
        {
            "sampler" : 0,
            "source" : 0
        }
    ],
    "images" : [
        {
            "bufferView" : 4,
            "mimeType" : "image/jpeg",
            "name" : "Busto 17_LO"
        }
    ],
    "accessors" : [
        {
            "bufferView" : 0,
            "componentType" : 5126,
            "count" : 3670,
            "max" : [
                1.1467373371124268,
                0.8640955090522766,
                0.8769476413726807
            ],
            "min" : [
                -0.9297969341278076,
                -0.6332932710647583,
                -1.2453933954238892
            ],
            "type" : "VEC3"
        },
        {
            "bufferView" : 1,
            "componentType" : 5126,
            "count" : 3670,
            "type" : "VEC3"
        },
        {
            "bufferView" : 2,
            "componentType" : 5126,
            "count" : 3670,
            "type" : "VEC2"
        },
        {
            "bufferView" : 3,
            "componentType" : 5123,
            "count" : 14850,
            "type" : "SCALAR"
        }
    ],
    "bufferViews" : [
        {
            "buffer" : 0,
            "byteLength" : 44040,
            "byteOffset" : 0
        },
        {
            "buffer" : 0,
            "byteLength" : 44040,
            "byteOffset" : 44040
        },
        {
            "buffer" : 0,
            "byteLength" : 29360,
            "byteOffset" : 88080
        },
        {
            "buffer" : 0,
            "byteLength" : 29700,
            "byteOffset" : 117440
        },
        {
            "buffer" : 0,
            "byteLength" : 772161,
            "byteOffset" : 147140
        }
    ],
    "samplers" : [
        {
            "magFilter" : 9729,
            "minFilter" : 9987
        }
    ],
    "buffers" : [
        {
            "byteLength" : 919304,
            "uri" : "data:application/octet-stream;base64,"
        }
    ]
}
