{
    "asset" : {
        "generator" : "Khronos glTF Blender I/O v1.7.33",
        "version" : "2.0"
    },
    "scene" : 0,
    "scenes" : [
        {
            "name" : "Scene",
            "nodes" : [
                0
            ]
        }
    ],
    "nodes" : [
        {
            "mesh" : 0,
            "name" : "Scan_19_Madrinha",
            "rotation" : [
                -0.6137546896934509,
                0.02602095901966095,
                -0.0025680698454380035,
                0.7890636920928955
            ],
            "scale" : [
                3.0243234634399414,
                3.0243237018585205,
                3.0243237018585205
            ],
            "translation" : [
                0.416839599609375,
                1.9903573989868164,
                0.4525379538536072
            ]
        }
    ],
    "animations" : [
        {
            "channels" : [
                {
                    "sampler" : 0,
                    "target" : {
                        "node" : 0,
                        "path" : "rotation"
                    }
                }
            ],
            "name" : "Scan_19_MadrinhaAction.001",
            "samplers" : [
                {
                    "input" : 4,
                    "interpolation" : "LINEAR",
                    "output" : 5
                }
            ]
        }
    ],
    "materials" : [
        {
            "doubleSided" : true,
            "name" : "Scan_19.001",
            "pbrMetallicRoughness" : {
                "baseColorTexture" : {
                    "index" : 0
                },
                "metallicFactor" : 0
            }
        }
    ],
    "meshes" : [
        {
            "name" : "Scan_19.001",
            "primitives" : [
                {
                    "attributes" : {
                        "POSITION" : 0,
                        "NORMAL" : 1,
                        "TEXCOORD_0" : 2
                    },
                    "indices" : 3,
                    "material" : 0
                }
            ]
        }
    ],
    "textures" : [
        {
            "sampler" : 0,
            "source" : 0
        }
    ],
    "images" : [
        {
            "bufferView" : 4,
            "mimeType" : "image/jpeg",
            "name" : "Scan_19_LO"
        }
    ],
    "accessors" : [
        {
            "bufferView" : 0,
            "componentType" : 5126,
            "count" : 17595,
            "max" : [
                0.33449119329452515,
                0.5924378633499146,
                0.7833601236343384
            ],
            "min" : [
                -0.5422806143760681,
                -0.39090612530708313,
                -0.7206469774246216
            ],
            "type" : "VEC3"
        },
        {
            "bufferView" : 1,
            "componentType" : 5126,
            "count" : 17595,
            "type" : "VEC3"
        },
        {
            "bufferView" : 2,
            "componentType" : 5126,
            "count" : 17595,
            "type" : "VEC2"
        },
        {
            "bufferView" : 3,
            "componentType" : 5123,
            "count" : 17595,
            "type" : "SCALAR"
        },
        {
            "bufferView" : 5,
            "componentType" : 5126,
            "count" : 984,
            "max" : [
                16.383333333333333
            ],
            "min" : [
                0
            ],
            "type" : "SCALAR"
        },
        {
            "bufferView" : 6,
            "componentType" : 5126,
            "count" : 984,
            "type" : "VEC4"
        }
    ],
    "bufferViews" : [
        {
            "buffer" : 0,
            "byteLength" : 211140,
            "byteOffset" : 0
        },
        {
            "buffer" : 0,
            "byteLength" : 211140,
            "byteOffset" : 211140
        },
        {
            "buffer" : 0,
            "byteLength" : 140760,
            "byteOffset" : 422280
        },
        {
            "buffer" : 0,
            "byteLength" : 35190,
            "byteOffset" : 563040
        },
        {
            "buffer" : 0,
            "byteLength" : 555345,
            "byteOffset" : 598232
        },
        {
            "buffer" : 0,
            "byteLength" : 3936,
            "byteOffset" : 1153580
        },
        {
            "buffer" : 0,
            "byteLength" : 15744,
            "byteOffset" : 1157516
        }
    ],
    "samplers" : [
        {
            "magFilter" : 9729,
            "minFilter" : 9987
        }
    ],
    "buffers" : [
        {
            "byteLength" : 1173260,
            "uri" : "data:application/octet-stream;base64,"
        }
    ]
}
